<svg width="196" height="200" viewBox="0 0 196 200" fill="none" xmlns="http://www.w3.org/2000/svg">
    <path
        d="M161 143.32H167.259L151.447 180.415C150.212 179.004 148.482 178.091 146.424 178.091H146.094L160.918 143.32H161ZM192.788 83.3195L184.882 101.826H178.624L187.518 81.0789C188.753 82.4896 190.482 83.4025 192.541 83.4025H192.871L192.788 83.3195Z"
        fill="#FFD485" />
    <path
        d="M89.6823 9.4606L10.8706 79.0872C10.2941 77.0955 8.8941 75.5187 7.08234 74.6888L85.8941 5.06226C86.3882 7.05396 87.8706 8.63072 89.6823 9.4606Z"
        fill="#A8BDF0" />
    <path
        d="M30.3059 188.797C28.7412 188.797 27.3412 189.378 26.1882 190.29L3.04706 87.3029C3.54118 87.3859 4.0353 87.4689 4.52941 87.4689C6.09412 87.4689 7.49412 86.888 8.64706 85.9751L31.7882 188.963C31.2941 188.88 30.8 188.797 30.3059 188.797Z"
        fill="#EE88B3" />
    <path
        d="M139.835 184.73C139.835 185.975 140.165 187.137 140.741 188.216L36.4 197.842C36.6471 197.095 36.8118 196.349 36.8118 195.519C36.8118 194.274 36.4824 193.112 35.8235 192.116L140.165 182.49C139.918 183.237 139.753 183.983 139.753 184.813L139.835 184.73Z"
        fill="#F89F72" />
    <path
        d="M189.412 70.8714C187.682 71.7842 186.365 73.527 186.035 75.6017L95.3647 9.21161C97.0942 8.29875 98.4118 6.55601 98.7412 4.48132L189.412 70.8714Z"
        fill="#88E0D8" />
    <ellipse cx="146.176" cy="184.647" rx="3.70588" ry="3.73444" fill="#4C4C4C" />
    <ellipse cx="30.0588" cy="196.266" rx="3.70588" ry="3.73444" fill="#4C4C4C" />
    <ellipse cx="3.70588" cy="80.0829" rx="3.70588" ry="3.73444" fill="#4C4C4C" />
    <ellipse cx="91.8236" cy="3.73444" rx="3.70588" ry="3.73444" fill="#4C4C4C" />
    <ellipse cx="192.294" cy="76.7635" rx="3.70588" ry="3.73444" fill="#4C4C4C" />
</svg>