<?xml version="1.0" encoding="UTF-8"?>
<svg id="Layer_1" xmlns="http://www.w3.org/2000/svg" version="1.1" viewBox="0 0 681 400">
    <!-- Generator: Adobe Illustrator 29.1.0, SVG Export Plug-In . SVG Version: 2.1.0 Build 142)  -->
    <defs>
        <style>
            .st0 {
                fill: #88e0d8;
            }

            .st1 {
                fill: #ee88b3;
            }

            .st2 {
                fill: none;
                stroke: #4c4c4c;
                stroke-miterlimit: 10;
                stroke-width: 1.5px;
            }

            .st3 {
                fill: #ffd485;
            }

            .st4 {
                fill: #4c4c4c;
            }

            .st5 {
                fill: #f89f72;
            }

            .st6 {
                fill: #a8bdf0;
            }
        </style>
    </defs>
    <path class="st3" d="M283.5,240.7h7.6l-19.2,44.7c-1.5-1.7-3.6-2.8-6.1-2.8s-.2,0-.4,0l18-41.9h.1Z" />
    <path class="st3" d="M322.1,168.4l-9.6,22.3h-7.6l10.8-25c1.5,1.7,3.6,2.8,6.1,2.8s.2,0,.4,0h0Z" />
    <path class="st6" d="M196.9,79.4l-95.7,83.9c-.7-2.4-2.4-4.3-4.6-5.3l95.7-83.9c.6,2.4,2.4,4.3,4.6,5.3Z" />
    <path class="st1"
        d="M124.8,295.5c-1.9,0-3.6.7-5,1.8l-28.1-124.1c.6.1,1.2.2,1.8.2,1.9,0,3.6-.7,5-1.8l28.1,124.1c-.6-.1-1.2-.2-1.8-.2h0Z" />
    <path class="st5"
        d="M257.8,290.6c0,1.5.4,2.9,1.1,4.2l-126.7,11.6c.3-.9.5-1.8.5-2.8,0-1.5-.4-2.9-1.2-4.1l126.7-11.6c-.3.9-.5,1.8-.5,2.8h0Z" />
    <path class="st0" d="M318,153.4c-2.1,1.1-3.7,3.2-4.1,5.7l-110.1-80c2.1-1.1,3.7-3.2,4.1-5.7l110.1,80Z" />
    <path class="st4"
        d="M204.5,72c0,2.4-1.9,4.4-4.3,4.5h-.2c-2.5,0-4.5-2-4.5-4.5s0-.5,0-.8c.4-2.1,2.2-3.7,4.4-3.7s3.8,1.4,4.3,3.3c.1.4.2.8.2,1.2h.1Z" />
    <path class="st4"
        d="M98,165.4v.8c0,.4-.2.8-.4,1.2-.7,1.5-2.3,2.5-4,2.5s-2-.4-2.8-1c-1-.8-1.7-2.1-1.7-3.5,0-2.4,1.9-4.4,4.3-4.5h.2c2.5,0,4.5,2,4.5,4.5h0Z" />
    <path class="st4"
        d="M129.3,303.5c0,1.3-.5,2.4-1.4,3.2h0c-.8.8-1.9,1.3-3.1,1.3-2.5,0-4.5-2-4.5-4.5s.2-1.4.5-2c.7-1.5,2.3-2.5,4-2.5s1.8.3,2.5.8c0,0,.2.1.3.2,1,.8,1.7,2.1,1.7,3.5Z" />
    <path class="st4"
        d="M270.3,290.6c0,2.5-2,4.5-4.5,4.5s-1.8-.3-2.5-.8c-1.2-.8-2-2.2-2-3.8s.5-2.4,1.4-3.2h0c.3-.3.6-.6,1-.8h0c.6-.3,1.3-.5,2.1-.5,2.1,0,3.8,1.4,4.3,3.3.1.4.2.8.2,1.2h0Z" />
    <path class="st4"
        d="M326.2,160.5c0,1.7-1,3.2-2.4,4-.6.3-1.3.5-2.1.5-2.1,0-3.8-1.4-4.3-3.3h0c-.1-.4-.2-.8-.2-1.2,0-2.4,1.9-4.4,4.3-4.5h.2c2.5,0,4.5,2,4.5,4.5Z" />
    <g>
        <polygon class="st4"
            points="212.3 223.6 210.8 223.6 208 201.4 201 201.4 205.7 230.1 216.7 230.1 225.2 201.4 218.1 201.4 212.3 223.6" />
        <polygon class="st4" points="227.3 201.4 231.4 230.1 238 230.1 234 201.4 227.3 201.4" />
        <polygon class="st4"
            points="239.8 207 251.9 207 251.9 207.8 239.8 224.4 239.8 230.1 260.5 230.1 260.5 224.6 248.5 224.6 248.5 223.8 260.5 207.4 260.5 201.4 239.8 201.4 239.8 207" />
        <path class="st4"
            d="M279,227c-1.4.2-2.7.2-3.9.2s-2.9-.2-3.9-.7-1.8-1.2-2.3-2.1c-.5-1-.9-2.2-1.2-3.7-.2-1.5-.4-3.2-.5-5.2,0-2,0-3.8.1-5.2.1-1.5.4-2.7.9-3.7s1.2-1.7,2.1-2.1c1-.5,2.2-.7,3.8-.7s1.6,0,2.5.1,1.8.2,2.7.3c.9.1,1.7.2,2.3.3v-3.1c-.6-.1-1.3-.3-2.2-.4-.9-.2-1.8-.3-2.8-.4-1-.1-2-.2-3-.2-2.2,0-4,.3-5.4,1-1.4.6-2.5,1.6-3.2,2.9-.8,1.3-1.2,2.9-1.5,4.7-.2,1.9-.3,4.1-.2,6.5,0,2.5.3,4.6.7,6.5s1,3.4,1.8,4.7c.9,1.2,2,2.2,3.4,2.8s3.2,1,5.4,1,1.9,0,2.9-.1c1,0,1.9-.2,2.8-.3s1.7-.3,2.4-.4l-.2-3.1c-1,.2-2.1.3-3.5.5h0Z" />
        <polygon class="st4"
            points="305.4 201 301.7 201 303.2 212.6 303.3 213.9 289.2 213.9 287.5 201 283.8 201 287.4 230.1 291.1 230.1 290.5 224.4 289.6 217.1 303.8 217.1 305.3 230.1 309 230.1 306 205.9 305.4 201" />
        <polygon class="st4" points="311.1 201 315.2 230.1 319 230.1 314.8 201 311.1 201" />
        <polygon class="st4"
            points="340.7 201 319.6 201 319.2 204.3 327.9 204.3 325.2 230.1 329 230.1 331.7 204.3 340.3 204.3 340.7 201" />
        <path class="st4"
            d="M360.3,215.4c1-1.4,1.7-3.2,2-5.3s.2-3.8-.4-5.2c-.5-1.4-1.5-2.4-2.8-3s-3-.9-5.2-.9h-10.8l-4.1,29.1h3.7l1.5-10.9h7.9l3.5,10.9h4l-3.6-11.7c1.8-.6,3.3-1.6,4.3-3.1h0ZM358.5,209.8c-.1,1.2-.5,2.2-1,3.2-.5.9-1.2,1.7-2.1,2.2s-2.1.8-3.4.8h-7.2l1.7-11.8h7.3c1.9,0,3.3.5,4.1,1.4.8.9,1,2.3.7,4.2h-.1Z" />
        <path class="st4"
            d="M377.7,201h-7.7l-7.8,29.1h3.7l2-7.2h12l1.6,7.2h3.7l-7.4-29.1h-.1ZM368.6,219.8l4.2-15.6h2.1l4.2,15.6h-10.5Z" />
    </g>
    <line class="st2" x1="405.2" y1="237.5" x2="405.2" y2="193.5" />
    <g>
        <path class="st4"
            d="M425.5,210.8l3-11h3.1l3,11h-1.6l-.7-2.6h-4.4l-.7,2.6h-1.5ZM428.1,206.8h3.9l-1.5-5.8h-.8l-1.5,5.8Z" />
        <path class="st4"
            d="M442.7,210.9c-.3,0-.7,0-1.2,0-.4,0-.9,0-1.3-.2-.4,0-.8-.1-1.1-.2v-1.2c.4,0,.8,0,1.2.1.4,0,.8,0,1.2.1.4,0,.8,0,1,0,.5,0,.9,0,1.2-.2.3-.1.6-.4.7-.6s.2-.7.2-1.1,0-.7-.2-.9c-.1-.2-.4-.4-.7-.5-.3-.1-.8-.3-1.4-.4-.6-.1-1.1-.3-1.5-.4s-.8-.3-1.1-.6-.5-.5-.6-.9c-.1-.4-.2-.8-.2-1.3,0-.7.1-1.3.4-1.8.3-.4.7-.8,1.3-1,.5-.2,1.2-.3,1.9-.3s.7,0,1.1,0c.4,0,.8,0,1.2.1.4,0,.8.1,1.1.2v1.3c-.4,0-.8,0-1.2-.1-.4,0-.8,0-1.2-.1-.4,0-.7,0-.9,0-.5,0-.9,0-1.2.2-.3.1-.6.3-.7.5-.2.2-.2.5-.2.9s0,.8.2,1c.2.2.4.4.8.5.4.1.9.3,1.5.4.6.1,1.1.3,1.5.4.4.1.8.3,1,.6.3.2.5.5.6.8.1.3.2.7.2,1.2,0,.8-.1,1.5-.4,2-.3.5-.7.9-1.3,1.1-.5.2-1.2.4-1.9.4Z" />
        <path class="st4"
            d="M448.3,210.8v-11h4.1c.8,0,1.5.1,2.1.4s.9.7,1.2,1.2c.3.5.4,1.2.4,2.1s-.1,1.5-.4,2.1c-.3.6-.7,1-1.2,1.3s-1.2.4-2.1.4h-2.5v3.6h-1.5ZM449.8,205.9h2.5c.8,0,1.3-.2,1.6-.6.3-.4.5-1.1.5-1.9s-.2-1.4-.5-1.8c-.3-.4-.9-.6-1.6-.6h-2.5v4.8Z" />
        <path class="st4"
            d="M456.3,210.8l3-11h3.1l3,11h-1.6l-.7-2.6h-4.4l-.7,2.6h-1.5ZM458.8,206.8h3.9l-1.5-5.8h-.8l-1.5,5.8Z" />
        <path class="st4"
            d="M470.3,210.9c-.8,0-1.5-.1-2.1-.4-.5-.2-1-.6-1.3-1.1s-.5-1.1-.6-1.8c-.1-.7-.2-1.5-.2-2.5s0-1.8.2-2.5.3-1.3.6-1.8.7-.8,1.3-1.1c.5-.2,1.2-.4,2.1-.4s.8,0,1.1,0c.4,0,.7,0,1.1.1s.6.1.9.2v1.3c-.3,0-.6,0-.9-.1s-.7,0-1-.1c-.3,0-.7,0-1,0-.6,0-1,0-1.4.3-.4.2-.6.4-.8.8s-.3.8-.4,1.3-.1,1.2-.1,2,0,1.4.1,1.9.2,1,.4,1.3c.2.3.5.6.8.8.4.2.8.2,1.4.2s.9,0,1.5,0c.5,0,1-.1,1.4-.2v1.3c-.2,0-.5.1-.9.2-.3,0-.7,0-1.1.1-.4,0-.7,0-1.1,0Z" />
        <path class="st4" d="M475.2,210.8v-11h6.9v1.3h-5.4v3.5h4.4v1.3h-4.4v3.6h5.4v1.3h-6.9Z" />
        <path class="st4" d="M489.8,210.8v-9.7h-3.2v-1.4h8v1.4h-3.2v9.7h-1.5Z" />
        <path class="st4"
            d="M499.9,210.9c-1.2,0-2.1-.2-2.7-.6-.6-.4-1.1-1.1-1.4-1.9-.3-.8-.4-1.9-.4-3.1s.1-2.3.4-3.1c.3-.8.7-1.5,1.4-1.9.6-.4,1.5-.7,2.7-.7s2,.2,2.7.7c.6.4,1.1,1.1,1.4,1.9s.4,1.9.4,3.1-.1,2.3-.4,3.1c-.3.8-.7,1.5-1.4,1.9s-1.5.6-2.7.6ZM499.9,209.6c.8,0,1.4-.2,1.8-.5.4-.3.7-.8.8-1.4s.2-1.4.2-2.4,0-1.8-.2-2.4c-.1-.7-.4-1.2-.8-1.5-.4-.3-1-.5-1.8-.5s-1.4.2-1.8.5c-.4.3-.7.8-.8,1.5-.2.7-.2,1.5-.2,2.4s0,1.7.2,2.4.4,1.1.8,1.4c.4.3,1,.5,1.8.5Z" />
        <path class="st4"
            d="M513.7,210.9c-.8,0-1.5-.1-2.1-.4-.5-.2-1-.6-1.3-1.1-.3-.5-.5-1.1-.7-1.8-.1-.7-.2-1.5-.3-2.5,0-.9,0-1.8,0-2.5,0-.7.3-1.3.6-1.8.3-.5.7-.8,1.2-1.1.5-.2,1.2-.4,2.1-.4s.8,0,1.1,0c.4,0,.7,0,1.1.1s.6.1.9.2v1.3c-.3,0-.5,0-.9-.1-.3,0-.7,0-1-.1-.3,0-.7,0-1,0-.6,0-1,0-1.4.3-.4.2-.6.4-.8.8-.2.3-.3.8-.3,1.3s0,1.2,0,2c0,.7,0,1.4.2,1.9,0,.5.2,1,.4,1.3.2.4.5.6.9.8.4.2.9.2,1.4.2s.9,0,1.5,0c.5,0,1-.1,1.3-.2v1.3c-.2,0-.5.1-.8.2-.3,0-.7,0-1.1.1-.4,0-.7,0-1.1,0Z" />
        <path class="st4"
            d="M521.9,210.9c-1.2,0-2.1-.2-2.6-.6-.6-.4-.9-1.1-1-1.9-.1-.9,0-1.9.2-3.2.2-1.2.6-2.2,1-3.1.4-.8,1-1.5,1.7-1.9s1.6-.7,2.8-.7,2,.2,2.6.7c.6.5.9,1.1,1,2,.1.9,0,1.9-.2,3.2-.2,1.2-.6,2.3-1,3.1-.4.8-1,1.4-1.7,1.8-.7.4-1.6.6-2.8.6ZM522,209.6c.8,0,1.5-.2,1.9-.5.5-.3.9-.8,1.2-1.5.3-.6.5-1.5.7-2.5.2-.9.3-1.7.2-2.4s-.2-1.1-.5-1.4c-.3-.3-.9-.5-1.6-.5s-1.5.2-2,.5-.9.9-1.2,1.5c-.3.7-.5,1.5-.7,2.5-.2.9-.3,1.7-.2,2.3,0,.6.2,1.1.5,1.4.3.3.9.5,1.7.5Z" />
        <path class="st4" d="M529.2,210.8v-11h2.5l4,9.3h.3v-9.3h1.5v11h-2.5l-4-9.3h-.3v9.3h-1.5Z" />
        <path class="st4" d="M540,210.8v-11h2.5l4,9.3h.3v-9.3h1.5v11h-2.5l-4-9.3h-.3v9.3h-1.5Z" />
        <path class="st4"
            d="M551.1,210.8l-.8-11h6.9v1.3c0,0-5.3,0-5.3,0l.3,3.5h4.4v1.3c0,0-4.3,0-4.3,0l.2,3.6h5.4v1.3c0,0-6.8,0-6.8,0Z" />
        <path class="st4"
            d="M563.6,210.9c-.8,0-1.5-.1-2.1-.4-.5-.2-1-.6-1.3-1.1-.3-.5-.5-1.1-.7-1.8-.1-.7-.2-1.5-.3-2.5,0-.9,0-1.8,0-2.5,0-.7.3-1.3.6-1.8.3-.5.7-.8,1.2-1.1.5-.2,1.2-.4,2.1-.4s.8,0,1.1,0c.4,0,.7,0,1.1.1s.6.1.9.2v1.3c-.3,0-.5,0-.9-.1-.3,0-.7,0-1-.1-.3,0-.7,0-1,0-.6,0-1,0-1.4.3-.4.2-.6.4-.8.8-.2.3-.3.8-.3,1.3s0,1.2,0,2c0,.7,0,1.4.2,1.9,0,.5.2,1,.4,1.3.2.4.5.6.9.8.4.2.9.2,1.4.2s.9,0,1.5,0c.5,0,1-.1,1.3-.2v1.3c-.2,0-.5.1-.8.2-.3,0-.7,0-1.1.1-.4,0-.7,0-1.1,0Z" />
        <path class="st4" d="M569.9,210.8l1-9.7h-3.2l.2-1.4h8l-.2,1.4h-3.2l-1,9.7h-1.5Z" />
        <path class="st4"
            d="M425.5,230l3-11h3.1l3,11h-1.6l-.7-2.6h-4.4l-.7,2.6h-1.5ZM428.1,226h3.9l-1.5-5.8h-.8l-1.5,5.8Z" />
        <path class="st4" d="M436.1,230v-11h2.5l4,9.3h.3v-9.3h1.5v11h-2.5l-4-9.3h-.3v9.3h-1.5Z" />
        <path class="st4"
            d="M446.9,230v-11h4c.8,0,1.5.1,2.1.4.5.3,1,.6,1.3,1.1s.5,1,.7,1.7c.1.7.2,1.4.2,2.2s0,1.6-.2,2.2c-.1.7-.4,1.3-.7,1.8-.3.5-.8.9-1.3,1.2s-1.2.4-2.1.4h-4ZM448.4,228.7h2.5c.6,0,1-.1,1.4-.4s.6-.6.8-1c.2-.4.3-.9.4-1.4,0-.5.1-1.1.1-1.7s0-1.1-.1-1.6c0-.5-.2-.9-.4-1.3-.2-.4-.5-.6-.8-.8s-.8-.3-1.4-.3h-2.5v8.4Z" />
        <path class="st4"
            d="M464.6,230.1c-.8,0-1.5-.1-2.1-.4-.5-.2-1-.6-1.3-1.1-.3-.5-.5-1.1-.7-1.8-.1-.7-.2-1.5-.3-2.5,0-.9,0-1.8,0-2.5,0-.7.3-1.3.6-1.8.3-.5.7-.8,1.2-1.1.5-.2,1.2-.4,2.1-.4s.8,0,1.1,0c.4,0,.7,0,1.1.1s.6.1.9.2v1.3c-.3,0-.5,0-.9-.1-.3,0-.7,0-1-.1s-.7,0-1,0c-.6,0-1,0-1.4.3s-.6.4-.8.8c-.2.3-.3.8-.3,1.3s0,1.2,0,2c0,.7,0,1.4.2,1.9,0,.5.2,1,.4,1.3.2.4.5.6.9.8.4.2.9.2,1.4.2s.9,0,1.5,0c.5,0,1-.1,1.3-.2v1.3c-.2,0-.5.1-.8.2-.3,0-.7,0-1.1.1-.4,0-.7,0-1.1,0Z" />
        <path class="st4"
            d="M468.9,230l1.6-11h4.1c.8,0,1.5.1,2,.4.5.2.9.6,1.1,1.1.2.5.3,1.2.1,2-.1.8-.3,1.5-.7,2-.4.5-.9.9-1.6,1.1l1.4,4.4h-1.6l-1.2-4.1h-2.9l-.6,4.1h-1.5ZM471.2,224.6h2.6c.5,0,.9,0,1.3-.3.3-.2.6-.5.8-.8.2-.4.3-.7.4-1.2.1-.7,0-1.2-.2-1.5s-.8-.5-1.5-.5h-2.7l-.6,4.4Z" />
        <path class="st4"
            d="M479.6,230l-.8-11h6.9v1.3c0,0-5.3,0-5.3,0l.3,3.5h4.4v1.3c0,0-4.3,0-4.3,0l.2,3.6h5.4v1.3c0,0-6.8,0-6.8,0Z" />
        <path class="st4"
            d="M487.3,230l3-11h3.1l3,11h-1.6l-.7-2.6h-4.4l-.7,2.6h-1.5ZM489.9,226h3.9l-1.5-5.8h-.8l-1.5,5.8Z" />
        <path class="st4" d="M498.4,230l1-9.7h-3.2l.2-1.4h8l-.2,1.4h-3.2l-1,9.7h-1.5Z" />
        <path class="st4"
            d="M505.7,230l-.8-11h6.9v1.3c0,0-5.3,0-5.3,0l.3,3.5h4.4v1.3c0,0-4.3,0-4.3,0l.2,3.6h5.4v1.3c0,0-6.8,0-6.8,0Z" />
        <path class="st4"
            d="M519.2,230l-2.1-11h1.6l1.7,9.6h.4l2.1-9.5h1.8l2.1,9.5h.4l1.7-9.6h1.6l-2.1,11h-2.6l-2-9.6h.2l-2,9.6h-2.6Z" />
        <path class="st4" d="M532.1,230v-11h1.5v11h-1.5Z" />
        <path class="st4" d="M538.4,230v-9.7h-3.2v-1.4h8v1.4h-3.2v9.7h-1.5Z" />
        <path class="st4" d="M544.6,230v-11h1.5v4.8h5.2v-4.8h1.5v11h-1.5v-4.9h-5.2v4.9h-1.5Z" />
        <path class="st4"
            d="M558.9,230v-11h4c.8,0,1.5.1,2.1.4.5.3,1,.6,1.3,1.1s.5,1,.7,1.7c.1.7.2,1.4.2,2.2s0,1.6-.2,2.2c-.1.7-.4,1.3-.7,1.8-.3.5-.8.9-1.3,1.2s-1.2.4-2.1.4h-4ZM560.4,228.7h2.5c.6,0,1-.1,1.4-.4s.6-.6.8-1c.2-.4.3-.9.4-1.4,0-.5.1-1.1.1-1.7s0-1.1-.1-1.6c0-.5-.2-.9-.4-1.3-.2-.4-.5-.6-.8-.8s-.8-.3-1.4-.3h-2.5v8.4Z" />
        <path class="st4"
            d="M567.9,230l3-11h3.1l3,11h-1.6l-.7-2.6h-4.4l-.7,2.6h-1.5ZM570.5,226h3.9l-1.5-5.8h-.8l-1.5,5.8Z" />
        <path class="st4" d="M579.8,230v-9.7h-3.2v-1.4h8v1.4h-3.2v9.7h-1.5Z" />
        <path class="st4"
            d="M584.1,230l3-11h3.1l3,11h-1.6l-.7-2.6h-4.4l-.7,2.6h-1.5ZM586.7,226h3.9l-1.5-5.8h-.8l-1.5,5.8Z" />
    </g>
</svg>