<svg xmlns="http://www.w3.org/2000/svg" viewBox="0 0 681 400">
    <path fill="#ffd485"
        d="M283.5 240.7h7.6l-19.2 44.7c-1.5-1.7-3.6-2.8-6.1-2.8h-.4l18-41.9h.1Zm38.6-72.3-9.6 22.3h-7.6l10.8-25c1.5 1.7 3.6 2.8 6.1 2.8h.4Z" />
    <path fill="#a8bdf0" d="m196.9 79.4-95.7 83.9c-.7-2.4-2.4-4.3-4.6-5.3l95.7-83.9c.6 2.4 2.4 4.3 4.6 5.3Z" />
    <path fill="#ee88b3"
        d="M124.8 295.5c-1.9 0-3.6.7-5 1.8L91.7 173.2c.6.1 1.2.2 1.8.2 1.9 0 3.6-.7 5-1.8l28.1 124.1c-.6-.1-1.2-.2-1.8-.2Z" />
    <path fill="#f89f72"
        d="M257.8 290.6c0 1.5.4 2.9 1.1 4.2l-126.7 11.6c.3-.9.5-1.8.5-2.8 0-1.5-.4-2.9-1.2-4.1l126.7-11.6c-.3.9-.5 1.8-.5 2.8Z" />
    <path fill="#88e0d8" d="M318 153.4c-2.1 1.1-3.7 3.2-4.1 5.7l-110.1-80c2.1-1.1 3.7-3.2 4.1-5.7l110.1 80Z" />
    <path fill="#4C4C4C"
        d="M204.5 72c0 2.4-1.9 4.4-4.3 4.5h-.2c-2.5 0-4.5-2-4.5-4.5v-.8c.4-2.1 2.2-3.7 4.4-3.7s3.8 1.4 4.3 3.3c.1.4.2.8.2 1.2h.1ZM98 165.4v.8c0 .4-.2.8-.4 1.2-.7 1.5-2.3 2.5-4 2.5s-2-.4-2.8-1c-1-.8-1.7-2.1-1.7-3.5 0-2.4 1.9-4.4 4.3-4.5h.2c2.5 0 4.5 2 4.5 4.5Zm31.3 138.1c0 1.3-.5 2.4-1.4 3.2-.8.8-1.9 1.3-3.1 1.3-2.5 0-4.5-2-4.5-4.5s.2-1.4.5-2c.7-1.5 2.3-2.5 4-2.5s1.8.3 2.5.8c0 0 .2.1.3.2 1 .8 1.7 2.1 1.7 3.5Zm141-12.9c0 2.5-2 4.5-4.5 4.5s-1.8-.3-2.5-.8c-1.2-.8-2-2.2-2-3.8s.5-2.4 1.4-3.2c.3-.3.6-.6 1-.8.6-.3 1.3-.5 2.1-.5 2.1 0 3.8 1.4 4.3 3.3.1.4.2.8.2 1.2Zm55.9-130.1c0 1.7-1 3.2-2.4 4-.6.3-1.3.5-2.1.5-2.1 0-3.8-1.4-4.3-3.3-.1-.4-.2-.8-.2-1.2 0-2.4 1.9-4.4 4.3-4.5h.2c2.5 0 4.5 2 4.5 4.5Zm-113.9 63.1h-1.5l-2.8-22.2h-7l4.7 28.7h11l8.5-28.7h-7.1l-5.8 22.2zm15-22.2 4.1 28.7h6.6l-4-28.7h-6.7zm12.5 5.6h12.1v.8l-12.1 16.6v5.7h20.7v-5.5h-12v-.8l12-16.4v-6h-20.7v5.6zm39.2 20c-1.4.2-2.7.2-3.9.2s-2.9-.2-3.9-.7-1.8-1.2-2.3-2.1c-.5-1-.9-2.2-1.2-3.7-.2-1.5-.4-3.2-.5-5.2 0-2 0-3.8.1-5.2.1-1.5.4-2.7.9-3.7s1.2-1.7 2.1-2.1c1-.5 2.2-.7 3.8-.7s1.6 0 2.5.1l2.7.3c.9.1 1.7.2 2.3.3v-3.1c-.6-.1-1.3-.3-2.2-.4-.9-.2-1.8-.3-2.8-.4-1-.1-2-.2-3-.2-2.2 0-4 .3-5.4 1-1.4.6-2.5 1.6-3.2 2.9-.8 1.3-1.2 2.9-1.5 4.7-.2 1.9-.3 4.1-.2 6.5 0 2.5.3 4.6.7 6.5s1 3.4 1.8 4.7c.9 1.2 2 2.2 3.4 2.8s3.2 1 5.4 1 1.9 0 2.9-.1c1 0 1.9-.2 2.8-.3s1.7-.3 2.4-.4l-.2-3.1c-1 .2-2.1.3-3.5.5Zm26.4-26h-3.7l1.5 11.6.1 1.3h-14.1l-1.7-12.9h-3.7l3.6 29.1h3.7l-.6-5.7-.9-7.3h14.2l1.5 13h3.7l-3-24.2-.6-4.9zm5.7 0 4.1 29.1h3.8l-4.2-29.1h-3.7zm29.6 0h-21.1l-.4 3.3h8.7l-2.7 25.8h3.8l2.7-25.8h8.6l.4-3.3zm19.6 14.4c1-1.4 1.7-3.2 2-5.3s.2-3.8-.4-5.2c-.5-1.4-1.5-2.4-2.8-3s-3-.9-5.2-.9h-10.8l-4.1 29.1h3.7l1.5-10.9h7.9l3.5 10.9h4l-3.6-11.7c1.8-.6 3.3-1.6 4.3-3.1Zm-1.8-5.6c-.1 1.2-.5 2.2-1 3.2-.5.9-1.2 1.7-2.1 2.2s-2.1.8-3.4.8h-7.2l1.7-11.8h7.3c1.9 0 3.3.5 4.1 1.4.8.9 1 2.3.7 4.2h-.1Zm19.2-8.8H370l-7.8 29.1h3.7l2-7.2h12l1.6 7.2h3.7l-7.4-29.1h-.1Zm-9.1 18.8 4.2-15.6h2.1l4.2 15.6h-10.5Z" />
    <path fill="none" stroke="#4c4c4c" stroke-miterlimit="10" stroke-width="1.5" d="M405.2 237.5v-44" />
    <path fill="#4C4C4C"
        d="m425.5 210.8 3-11h3.1l3 11H433l-.7-2.6h-4.4l-.7 2.6h-1.5Zm2.6-4h3.9l-1.5-5.8h-.8l-1.5 5.8Zm14.6 4.1h-1.2c-.4 0-.9 0-1.3-.2-.4 0-.8-.1-1.1-.2v-1.2c.4 0 .8 0 1.2.1.4 0 .8 0 1.2.1h1c.5 0 .9 0 1.2-.2.3-.1.6-.4.7-.6s.2-.7.2-1.1 0-.7-.2-.9c-.1-.2-.4-.4-.7-.5-.3-.1-.8-.3-1.4-.4-.6-.1-1.1-.3-1.5-.4s-.8-.3-1.1-.6-.5-.5-.6-.9c-.1-.4-.2-.8-.2-1.3 0-.7.1-1.3.4-1.8.3-.4.7-.8 1.3-1 .5-.2 1.2-.3 1.9-.3h1.1c.4 0 .8 0 1.2.1.4 0 .8.1 1.1.2v1.3c-.4 0-.8 0-1.2-.1-.4 0-.8 0-1.2-.1h-.9c-.5 0-.9 0-1.2.2-.3.1-.6.3-.7.5-.2.2-.2.5-.2.9s0 .8.2 1c.2.2.4.4.8.5.4.1.9.3 1.5.4.6.1 1.1.3 1.5.4.4.1.8.3 1 .6.3.2.5.5.6.8.1.3.2.7.2 1.2 0 .8-.1 1.5-.4 2-.3.5-.7.9-1.3 1.1-.5.2-1.2.4-1.9.4Zm5.6-.1v-11h4.1c.8 0 1.5.1 2.1.4s.9.7 1.2 1.2c.3.5.4 1.2.4 2.1s-.1 1.5-.4 2.1c-.3.6-.7 1-1.2 1.3s-1.2.4-2.1.4h-2.5v3.6h-1.5Zm1.5-4.9h2.5c.8 0 1.3-.2 1.6-.6.3-.4.5-1.1.5-1.9s-.2-1.4-.5-1.8c-.3-.4-.9-.6-1.6-.6h-2.5v4.8Zm6.5 4.9 3-11h3.1l3 11h-1.6l-.7-2.6h-4.4l-.7 2.6h-1.5Zm2.5-4h3.9l-1.5-5.8h-.8l-1.5 5.8Zm11.5 4.1c-.8 0-1.5-.1-2.1-.4-.5-.2-1-.6-1.3-1.1s-.5-1.1-.6-1.8c-.1-.7-.2-1.5-.2-2.5s0-1.8.2-2.5.3-1.3.6-1.8.7-.8 1.3-1.1c.5-.2 1.2-.4 2.1-.4h1.1c.4 0 .7 0 1.1.1s.6.1.9.2v1.3c-.3 0-.6 0-.9-.1s-.7 0-1-.1h-1c-.6 0-1 0-1.4.3-.4.2-.6.4-.8.8s-.3.8-.4 1.3-.1 1.2-.1 2 0 1.4.1 1.9.2 1 .4 1.3c.2.3.5.6.8.8.4.2.8.2 1.4.2h1.5c.5 0 1-.1 1.4-.2v1.3c-.2 0-.5.1-.9.2-.3 0-.7 0-1.1.1h-1.1Zm4.9-.1v-11h6.9v1.3h-5.4v3.5h4.4v1.3h-4.4v3.6h5.4v1.3h-6.9Zm14.6 0v-9.7h-3.2v-1.4h8v1.4h-3.2v9.7h-1.5Zm10.1.1c-1.2 0-2.1-.2-2.7-.6-.6-.4-1.1-1.1-1.4-1.9-.3-.8-.4-1.9-.4-3.1s.1-2.3.4-3.1c.3-.8.7-1.5 1.4-1.9.6-.4 1.5-.7 2.7-.7s2 .2 2.7.7c.6.4 1.1 1.1 1.4 1.9s.4 1.9.4 3.1-.1 2.3-.4 3.1c-.3.8-.7 1.5-1.4 1.9s-1.5.6-2.7.6Zm0-1.3c.8 0 1.4-.2 1.8-.5.4-.3.7-.8.8-1.4s.2-1.4.2-2.4 0-1.8-.2-2.4c-.1-.7-.4-1.2-.8-1.5-.4-.3-1-.5-1.8-.5s-1.4.2-1.8.5c-.4.3-.7.8-.8 1.5-.2.7-.2 1.5-.2 2.4s0 1.7.2 2.4.4 1.1.8 1.4c.4.3 1 .5 1.8.5Zm13.8 1.3c-.8 0-1.5-.1-2.1-.4-.5-.2-1-.6-1.3-1.1-.3-.5-.5-1.1-.7-1.8-.1-.7-.2-1.5-.3-2.5v-2.5c0-.7.3-1.3.6-1.8s.7-.8 1.2-1.1c.5-.2 1.2-.4 2.1-.4h1.1c.4 0 .7 0 1.1.1s.6.1.9.2v1.3c-.3 0-.5 0-.9-.1-.3 0-.7 0-1-.1h-1c-.6 0-1 0-1.4.3-.4.2-.6.4-.8.8-.2.3-.3.8-.3 1.3v2c0 .7 0 1.4.2 1.9 0 .5.2 1 .4 1.3.2.4.5.6.9.8.4.2.9.2 1.4.2h1.5c.5 0 1-.1 1.3-.2v1.3c-.2 0-.5.1-.8.2-.3 0-.7 0-1.1.1h-1.1Zm8.2 0c-1.2 0-2.1-.2-2.6-.6-.6-.4-.9-1.1-1-1.9-.1-.9 0-1.9.2-3.2.2-1.2.6-2.2 1-3.1.4-.8 1-1.5 1.7-1.9s1.6-.7 2.8-.7 2 .2 2.6.7c.6.5.9 1.1 1 2 .1.9 0 1.9-.2 3.2-.2 1.2-.6 2.3-1 3.1-.4.8-1 1.4-1.7 1.8-.7.4-1.6.6-2.8.6Zm.1-1.3c.8 0 1.5-.2 1.9-.5.5-.3.9-.8 1.2-1.5.3-.6.5-1.5.7-2.5.2-.9.3-1.7.2-2.4s-.2-1.1-.5-1.4c-.3-.3-.9-.5-1.6-.5s-1.5.2-2 .5-.9.9-1.2 1.5c-.3.7-.5 1.5-.7 2.5-.2.9-.3 1.7-.2 2.3 0 .6.2 1.1.5 1.4.3.3.9.5 1.7.5Zm7.2 1.2v-11h2.5l4 9.3h.3v-9.3h1.5v11H535l-4-9.3h-.3v9.3h-1.5Zm10.8 0v-11h2.5l4 9.3h.3v-9.3h1.5v11h-2.5l-4-9.3h-.3v9.3H540Zm11.1 0-.8-11h6.9v1.3h-5.3l.3 3.5h4.4v1.3h-4.3l.2 3.6h5.4v1.3h-6.8Zm12.5.1c-.8 0-1.5-.1-2.1-.4-.5-.2-1-.6-1.3-1.1-.3-.5-.5-1.1-.7-1.8-.1-.7-.2-1.5-.3-2.5v-2.5c0-.7.3-1.3.6-1.8s.7-.8 1.2-1.1c.5-.2 1.2-.4 2.1-.4h1.1c.4 0 .7 0 1.1.1s.6.1.9.2v1.3c-.3 0-.5 0-.9-.1-.3 0-.7 0-1-.1h-1c-.6 0-1 0-1.4.3-.4.2-.6.4-.8.8-.2.3-.3.8-.3 1.3v2c0 .7 0 1.4.2 1.9 0 .5.2 1 .4 1.3.2.4.5.6.9.8.4.2.9.2 1.4.2h1.5c.5 0 1-.1 1.3-.2v1.3c-.2 0-.5.1-.8.2-.3 0-.7 0-1.1.1h-1.1Zm6.3-.1 1-9.7h-3.2l.2-1.4h8l-.2 1.4h-3.2l-1 9.7H570ZM425.5 230l3-11h3.1l3 11H433l-.7-2.6h-4.4l-.7 2.6h-1.5Zm2.6-4h3.9l-1.5-5.8h-.8l-1.5 5.8Zm8 4v-11h2.5l4 9.3h.3V219h1.5v11h-2.5l-4-9.3h-.3v9.3h-1.5Zm10.8 0v-11h4c.8 0 1.5.1 2.1.4.5.3 1 .6 1.3 1.1s.5 1 .7 1.7c.1.7.2 1.4.2 2.2s0 1.6-.2 2.2c-.1.7-.4 1.3-.7 1.8-.3.5-.8.9-1.3 1.2s-1.2.4-2.1.4h-4Zm1.5-1.3h2.5c.6 0 1-.1 1.4-.4s.6-.6.8-1c.2-.4.3-.9.4-1.4 0-.5.1-1.1.1-1.7s0-1.1-.1-1.6c0-.5-.2-.9-.4-1.3s-.5-.6-.8-.8-.8-.3-1.4-.3h-2.5v8.4Zm16.2 1.4c-.8 0-1.5-.1-2.1-.4-.5-.2-1-.6-1.3-1.1-.3-.5-.5-1.1-.7-1.8-.1-.7-.2-1.5-.3-2.5v-2.5c0-.7.3-1.3.6-1.8s.7-.8 1.2-1.1c.5-.2 1.2-.4 2.1-.4h1.1c.4 0 .7 0 1.1.1s.6.1.9.2v1.3c-.3 0-.5 0-.9-.1-.3 0-.7 0-1-.1s-.7 0-1 0c-.6 0-1 0-1.4.3s-.6.4-.8.8c-.2.3-.3.8-.3 1.3v2c0 .7 0 1.4.2 1.9 0 .5.2 1 .4 1.3.2.4.5.6.9.8.4.2.9.2 1.4.2h1.5c.5 0 1-.1 1.3-.2v1.3c-.2 0-.5.1-.8.2-.3 0-.7 0-1.1.1h-1.1Zm4.3-.1 1.6-11h4.1c.8 0 1.5.1 2 .4.5.2.9.6 1.1 1.1.2.5.3 1.2.1 2-.1.8-.3 1.5-.7 2-.4.5-.9.9-1.6 1.1l1.4 4.4h-1.6l-1.2-4.1h-2.9l-.6 4.1h-1.5Zm2.3-5.4h2.6c.5 0 .9 0 1.3-.3.3-.2.6-.5.8-.8.2-.4.3-.7.4-1.2.1-.7 0-1.2-.2-1.5s-.8-.5-1.5-.5h-2.7l-.6 4.4Zm8.4 5.4-.8-11h6.9v1.3h-5.3l.3 3.5h4.4v1.3h-4.3l.2 3.6h5.4v1.3h-6.8Zm7.7 0 3-11h3.1l3 11h-1.6l-.7-2.6h-4.4l-.7 2.6h-1.5Zm2.6-4h3.9l-1.5-5.8h-.8L490 226Zm8.5 4 1-9.7h-3.2l.2-1.4h8l-.2 1.4H501l-1 9.7h-1.5Zm7.3 0-.8-11h6.9v1.3h-5.3l.3 3.5h4.4v1.3h-4.3l.2 3.6h5.4v1.3h-6.8Zm13.5 0-2.1-11h1.6l1.7 9.6h.4l2.1-9.5h1.8l2.1 9.5h.4l1.7-9.6h1.6l-2.1 11h-2.6l-2-9.6h.2l-2 9.6h-2.6Zm12.9 0v-11h1.5v11h-1.5Zm6.3 0v-9.7h-3.2v-1.4h8v1.4H540v9.7h-1.5Zm6.2 0v-11h1.5v4.8h5.2V219h1.5v11h-1.5v-4.9h-5.2v4.9h-1.5Zm14.3 0v-11h4c.8 0 1.5.1 2.1.4.5.3 1 .6 1.3 1.1s.5 1 .7 1.7c.1.7.2 1.4.2 2.2s0 1.6-.2 2.2c-.1.7-.4 1.3-.7 1.8-.3.5-.8.9-1.3 1.2s-1.2.4-2.1.4h-4Zm1.5-1.3h2.5c.6 0 1-.1 1.4-.4s.6-.6.8-1c.2-.4.3-.9.4-1.4 0-.5.1-1.1.1-1.7s0-1.1-.1-1.6c0-.5-.2-.9-.4-1.3s-.5-.6-.8-.8-.8-.3-1.4-.3h-2.5v8.4Zm7.5 1.3 3-11h3.1l3 11h-1.6l-.7-2.6h-4.4l-.7 2.6h-1.5Zm2.6-4h3.9l-1.5-5.8h-.8l-1.5 5.8Zm9.3 4v-9.7h-3.2v-1.4h8v1.4h-3.2v9.7h-1.5Zm4.3 0 3-11h3.1l3 11h-1.6l-.7-2.6h-4.4l-.7 2.6h-1.5Zm2.6-4h3.9l-1.5-5.8h-.8l-1.5 5.8Z" />
</svg>