<?xml version="1.0" encoding="UTF-8"?>
<svg id="Layer_1" xmlns="http://www.w3.org/2000/svg" version="1.1" viewBox="0 0 2048 530">
  <!-- Generator: Adobe Illustrator 29.1.0, SVG Export Plug-In . SVG Version: 2.1.0 Build 142)  -->
  <defs>
    <style>
      .st0 {
        fill: #4c4c4c;
      }
    </style>
  </defs>
  <path class="st0" d="M123.3,415.2L75.5,119.6h72.6l28.7,228.2h15.6l59.6-228.2h72.6l-87.8,295.6h-113.5Z" />
  <path class="st0" d="M388.5,415.2l-42.2-295.6h68.7l42.2,295.6h-68.7Z" />
  <path class="st0"
    d="M475.4,415.2v-59.1l124.8-171.3v-8.3h-124.8v-56.9h213.4v61.3l-124.3,169.1v7.8h124.3v57.4h-213.4Z" />
  <path class="st0"
    d="M833.8,419.5c-22.9,0-41.6-3.3-56.1-9.8-14.5-6.5-26.1-16.2-34.8-29.1-8.7-12.9-14.9-28.9-18.5-48-3.6-19.1-5.9-41.3-6.7-66.5-.9-25.5-.1-48,2.2-67.4,2.3-19.4,7.4-35.7,15.2-48.9,7.8-13.2,18.9-23,33.3-29.6,14.3-6.5,32.8-9.8,55.4-9.8s20.8.5,31.1,1.5c10.3,1,20,2.3,29.1,3.9,9.1,1.6,16.9,3.1,23.3,4.6l-.4,31.7c-6.4-1.2-14.2-2.3-23.5-3.5-9.3-1.2-18.7-2.1-28.3-2.8-9.6-.7-18.3-1.1-26.1-1.1-16.2,0-29.3,2.3-39.1,7-9.9,4.6-17.2,11.9-22.2,21.7-4.9,9.9-8.1,22.4-9.6,37.6-1.5,15.2-1.9,33.3-1.3,54.1.9,20.6,2.6,38.5,5.2,53.7s6.7,27.8,12.4,37.6c5.7,9.9,13.6,17.2,23.9,22,10.3,4.8,23.7,7.2,40.2,7.2s25.5-.8,40-2.4c14.5-1.6,26.7-3.3,36.5-5l2.2,32.2c-7,1.5-15.1,2.9-24.3,4.3-9.3,1.4-19,2.6-29.1,3.5-10.1.9-20.1,1.3-30,1.3Z" />
  <path class="st0"
    d="M965.7,415.2l-36.9-299.9h38.3l16.5,132.6h146.1l-16.5-132.6h38.3l36.9,299.9h-38.3l-16.1-133.9h-146.1l16.1,133.9h-38.3Z" />
  <path class="st0" d="M1252.3,415.2l-42.6-299.9h38.3l42.6,299.9h-38.3Z" />
  <path class="st0" d="M1355.4,415.2l27.8-266h-90l3.9-33.9h217.3l-3.9,33.9h-89.1l-27.8,266h-38.3Z" />
  <path class="st0"
    d="M1497.5,415.2l42.6-299.9h111.3c21.7,0,39.4,3.3,53,9.8,13.6,6.5,23.3,16.7,28.9,30.6,5.7,13.9,6.9,31.7,3.7,53.5-2.9,21.7-9.6,39.9-20.2,54.6-10.6,14.6-25.4,25.1-44.6,31.5l37.4,120h-40.9l-35.6-112.1h-81.7l-15.6,112.1h-38.3ZM1556.2,270h73.9c14.2,0,26-2.8,35.4-8.3,9.4-5.5,16.8-13.1,22.2-22.8,5.4-9.7,8.8-20.6,10.2-32.8,2.9-19.4.4-33.9-7.6-43.5-8-9.6-22-14.3-41.9-14.3h-74.8l-17.4,121.7Z" />
  <path class="st0"
    d="M1735.6,415.2l80.9-299.9h79.5l76.5,299.9h-38.3l-16.5-73.9h-123.5l-20.9,73.9h-37.8ZM1801.7,308.3h108.7l-43.5-160.8h-21.7l-43.5,160.8Z" />
</svg>